<svg width="212" height="212" viewBox="0 0 212 212" fill="none" xmlns="http://www.w3.org/2000/svg">
<path d="M50.9986 111.097L7.23599 79.0256L61.2261 73.6585L63.8516 73.3975L63.4496 70.7899L55.1826 17.1672L97.1544 51.5489L99.1955 53.2209L100.755 51.0927L132.826 7.33007L138.194 61.3202L138.454 63.9457L141.062 63.5437L194.685 55.2767L160.303 97.2485L158.631 99.2896L160.759 100.849L204.522 132.921L150.532 138.288L147.906 138.549L148.308 141.156L156.575 194.779L114.604 160.397L112.562 158.725L111.003 160.853L78.9315 204.616L73.5645 150.626L73.3035 148L70.6958 148.402L17.0731 156.669L51.4548 114.698L53.1268 112.657L50.9986 111.097Z" fill="#2D82F6" stroke="black" stroke-width="5"/>
<path d="M92.7792 124.891V120.154L105.344 107.837C106.546 106.624 107.547 105.546 108.348 104.603C109.149 103.661 109.75 102.747 110.151 101.864C110.551 100.98 110.752 100.038 110.752 99.0363C110.752 97.8935 110.493 96.9157 109.974 96.1027C109.456 95.278 108.743 94.6418 107.836 94.1942C106.929 93.7465 105.898 93.5226 104.743 93.5226C103.553 93.5226 102.511 93.77 101.615 94.2648C100.72 94.7479 100.025 95.4371 99.5299 96.3325C99.0469 97.2279 98.8054 98.2941 98.8054 99.5311H92.5671C92.5671 97.2338 93.0914 95.2368 94.14 93.5403C95.1885 91.8438 96.6317 90.5301 98.4696 89.5994C100.319 88.6687 102.44 88.2033 104.832 88.2033C107.259 88.2033 109.391 88.6569 111.229 89.5641C113.067 90.4712 114.492 91.7142 115.506 93.2929C116.531 94.8716 117.043 96.6741 117.043 98.7005C117.043 100.055 116.784 101.387 116.265 102.694C115.747 104.002 114.834 105.451 113.526 107.042C112.23 108.632 110.41 110.559 108.066 112.821L101.827 119.165V119.412H117.591V124.891H92.7792Z" fill="black"/>
</svg>
