<svg width="211" height="212" viewBox="0 0 211 212" fill="none" xmlns="http://www.w3.org/2000/svg">
<path d="M50.7338 110.773L6.97115 78.7017L60.9612 73.3347L63.5868 73.0737L63.1847 70.466L54.9178 16.8433L96.8896 51.225L98.9307 52.897L100.49 50.7688L132.562 7.00622L137.929 60.9963L138.19 63.6218L140.797 63.2198L194.42 54.9528L160.038 96.9247L158.366 98.9658L160.495 100.525L204.257 132.597L150.267 137.964L147.642 138.225L148.044 140.832L156.311 194.455L114.339 160.073L112.298 158.401L110.738 160.53L78.6667 204.292L73.2996 150.302L73.0386 147.677L70.431 148.079L16.8083 156.346L51.19 114.374L52.8619 112.333L50.7338 110.773Z" fill="#FD6A6B" stroke="black" stroke-width="5"/>
<path d="M106.701 124.425C104.156 124.425 101.894 123.989 99.9145 123.118C97.947 122.246 96.3918 121.032 95.249 119.477C94.1062 117.922 93.4995 116.125 93.4288 114.087H100.074C100.132 115.065 100.456 115.919 101.045 116.65C101.635 117.368 102.418 117.928 103.396 118.329C104.374 118.729 105.469 118.929 106.683 118.929C107.979 118.929 109.128 118.706 110.129 118.258C111.13 117.798 111.914 117.162 112.479 116.349C113.045 115.536 113.322 114.6 113.31 113.539C113.322 112.444 113.039 111.478 112.462 110.641C111.884 109.805 111.048 109.151 109.952 108.68C108.868 108.208 107.561 107.973 106.029 107.973H102.83V102.918H106.029C107.29 102.918 108.391 102.7 109.334 102.265C110.288 101.829 111.036 101.216 111.578 100.427C112.12 99.6255 112.385 98.7007 112.373 97.6522C112.385 96.6272 112.155 95.7377 111.684 94.9837C111.225 94.2179 110.571 93.6229 109.722 93.1988C108.886 92.7747 107.902 92.5626 106.771 92.5626C105.664 92.5626 104.639 92.7629 103.696 93.1634C102.754 93.564 101.994 94.1354 101.417 94.8776C100.839 95.6081 100.533 96.4799 100.498 97.4931H94.1887C94.2358 95.4667 94.819 93.6877 95.9383 92.1561C97.0693 90.6128 98.5773 89.4111 100.462 88.551C102.347 87.6792 104.462 87.2433 106.807 87.2433C109.222 87.2433 111.319 87.6969 113.098 88.604C114.889 89.4994 116.273 90.707 117.251 92.2268C118.229 93.7466 118.718 95.4255 118.718 97.2634C118.729 99.3016 118.129 101.01 116.915 102.388C115.713 103.767 114.135 104.668 112.179 105.092V105.375C114.724 105.728 116.674 106.671 118.028 108.202C119.395 109.722 120.072 111.613 120.061 113.875C120.061 115.902 119.483 117.716 118.329 119.318C117.186 120.909 115.607 122.157 113.593 123.065C111.59 123.972 109.292 124.425 106.701 124.425Z" fill="black"/>
</svg>
