<svg width="211" height="212" viewBox="0 0 211 212" fill="none" xmlns="http://www.w3.org/2000/svg">
<path d="M50.5576 110.861L6.79505 78.7901L60.7851 73.423L63.4107 73.162L63.0086 70.5544L54.7416 16.9317L96.7135 51.3133L98.7546 52.9853L100.314 50.8571L132.385 7.09454L137.753 61.0846L138.014 63.7102L140.621 63.3081L194.244 55.0412L159.862 97.013L158.19 99.0541L160.318 100.614L204.081 132.685L150.091 138.052L147.465 138.313L147.867 140.921L156.134 194.543L114.163 160.162L112.122 158.49L110.562 160.618L78.4906 204.381L73.1235 150.39L72.8625 147.765L70.2549 148.167L16.6322 156.434L51.0138 114.462L52.6858 112.421L50.5576 110.861Z" fill="#F5CB03" stroke="black" stroke-width="5"/>
<path d="M107.529 88.4627V124.655H100.972V94.8423H100.76L92.2954 100.25V94.2415L101.291 88.4627H107.529Z" fill="black"/>
</svg>
