<svg width="1294" height="317" viewBox="0 0 1294 317" fill="none" xmlns="http://www.w3.org/2000/svg">
<path d="M1293.8 158.5C1293.8 191.747 1287.73 220.223 1275.59 243.927C1263.54 267.532 1247.09 285.611 1226.23 298.167C1205.47 310.722 1181.92 317 1155.58 317C1129.23 317 1105.63 310.722 1084.77 298.167C1064.01 285.511 1047.56 267.381 1035.42 243.777C1023.37 220.072 1017.35 191.646 1017.35 158.5C1017.35 125.253 1023.37 96.8276 1035.42 73.2234C1047.56 49.5187 1064.01 31.3886 1084.77 18.8332C1105.63 6.27772 1129.23 0 1155.58 0C1181.92 0 1205.47 6.27772 1226.23 18.8332C1247.09 31.3886 1263.54 49.5187 1275.59 73.2234C1287.73 96.8276 1293.8 125.253 1293.8 158.5ZM1239.01 158.5C1239.01 135.097 1235.44 115.359 1228.29 99.2885C1221.24 83.1171 1211.44 70.9132 1198.91 62.6768C1186.37 54.34 1171.93 50.1716 1155.58 50.1716C1139.22 50.1716 1124.78 54.34 1112.24 62.6768C1099.71 70.9132 1089.87 83.1171 1082.72 99.2885C1075.67 115.359 1072.14 135.097 1072.14 158.5C1072.14 181.903 1075.67 201.691 1082.72 217.862C1089.87 233.933 1099.71 246.137 1112.24 254.474C1124.78 262.71 1139.22 266.828 1155.58 266.828C1171.93 266.828 1186.37 262.71 1198.91 254.474C1211.44 246.137 1221.24 233.933 1228.29 217.862C1235.44 201.691 1239.01 181.903 1239.01 158.5Z" fill="black"/>
<path d="M530.791 313.314V0H585.578V265.736H803.558V313.314H530.791Z" fill="black"/>
<path d="M840.419 313.314V0H898.428V265.736H1008.13V313.314H840.419Z" fill="black"/>
<path d="M357.547 313.314V0H492.72V47.5785H413.676V132.638H482.281V180.217H413.676V265.736H493.93V313.314H357.547Z" fill="black"/>
<path d="M0 313.314V0H55.7678V132.638H265.395V0H321.313V313.314H265.395V180.217H55.7678V313.314H0Z" fill="black"/>
</svg>
