<svg width="196" height="196" viewBox="0 0 196 196" fill="none" xmlns="http://www.w3.org/2000/svg">
<path d="M46.2146 103.041L3.776 71.9401L56.1327 66.7354L57.603 66.5893L57.3779 65.129L49.361 13.1286L90.063 46.4701L91.206 47.4064L92.0794 46.2146L123.18 3.776L128.385 56.1327L128.531 57.603L129.992 57.3779L181.992 49.361L148.65 90.063L147.714 91.206L148.906 92.0794L191.345 123.18L138.988 128.385L137.518 128.531L137.743 129.992L145.76 181.992L105.058 148.651L103.915 147.714L103.041 148.906L71.9401 191.345L66.7355 138.988L66.5893 137.518L65.129 137.743L13.1286 145.76L46.4701 105.058L47.4064 103.915L46.2146 103.041Z" fill="#F5CB03" stroke="black" stroke-width="2.8"/>
<path d="M68.7966 93.0004C68.6818 91.9266 68.198 91.0906 67.3453 90.4923C66.5008 89.8939 65.4021 89.5948 64.0493 89.5948C63.0982 89.5948 62.2823 89.7382 61.6018 90.0251C60.9213 90.312 60.4006 90.7013 60.0399 91.1931C59.6791 91.6849 59.4946 92.2463 59.4864 92.8774C59.4864 93.402 59.6053 93.8569 59.8431 94.2421C60.0891 94.6274 60.4211 94.9552 60.8393 95.2257C61.2574 95.488 61.7207 95.7093 62.229 95.8896C62.7374 96.0699 63.2498 96.2216 63.7664 96.3445L66.1277 96.9347C67.0788 97.156 67.9931 97.4551 68.8704 97.8322C69.7559 98.2092 70.5471 98.6846 71.244 99.2583C71.9492 99.8321 72.5067 100.525 72.9167 101.336C73.3266 102.148 73.5316 103.098 73.5316 104.188C73.5316 105.664 73.1544 106.963 72.4001 108.086C71.6458 109.201 70.5553 110.074 69.1286 110.705C67.7102 111.328 65.9925 111.639 63.9755 111.639C62.0159 111.639 60.3145 111.336 58.8715 110.729C57.4366 110.123 56.3133 109.237 55.5016 108.074C54.6981 106.91 54.2635 105.492 54.198 103.82H58.687C58.7526 104.697 59.0232 105.426 59.4987 106.008C59.9743 106.59 60.5933 107.024 61.3558 107.311C62.1266 107.598 62.9875 107.742 63.9386 107.742C64.9307 107.742 65.7998 107.594 66.5459 107.299C67.3002 106.996 67.8906 106.578 68.3169 106.045C68.7433 105.504 68.9606 104.873 68.9688 104.152C68.9606 103.496 68.7679 102.955 68.3907 102.529C68.0136 102.094 67.4847 101.734 66.8042 101.447C66.1318 101.152 65.3447 100.889 64.4428 100.66L61.5772 99.9223C59.5028 99.3895 57.863 98.5821 56.6577 97.5002C55.4606 96.4101 54.8621 94.9634 54.8621 93.1602C54.8621 91.6767 55.2638 90.3775 56.0674 89.2628C56.8791 88.1481 57.9819 87.2834 59.3757 86.6686C60.7696 86.0457 62.3479 85.7343 64.1107 85.7343C65.8982 85.7343 67.4642 86.0457 68.8089 86.6686C70.1617 87.2834 71.2235 88.1399 71.9943 89.2382C72.765 90.3283 73.1626 91.5824 73.1872 93.0004H68.7966Z" fill="black"/>
<path d="M80.4281 111.258H75.5578L84.4252 86.0785H90.058L98.9378 111.258H94.0674L87.34 91.2422H87.1432L80.4281 111.258ZM80.588 101.385H93.8707V105.049H80.588V101.385Z" fill="black"/>
<path d="M102.75 86.0785L109.306 105.897H109.564L116.107 86.0785H121.125L112.245 111.258H106.612L97.7448 86.0785H102.75Z" fill="black"/>
<path d="M124.442 111.258V86.0785H140.824V89.9021H129.005V96.7379H139.976V100.562H129.005V107.434H140.923V111.258H124.442Z" fill="black"/>
</svg>
